<?xml version="1.0" standalone="no"?>
<!DOCTYPE svg PUBLIC "-//W3C//DTD SVG 20010904//EN"
 "http://www.w3.org/TR/2001/REC-SVG-20010904/DTD/svg10.dtd">
<svg version="1.0" xmlns="http://www.w3.org/2000/svg"
 width="1350.000000pt" height="1350.000000pt" viewBox="0 0 1350.000000 1350.000000"
 preserveAspectRatio="xMidYMid meet">
<metadata>
Created by potrace 1.10, written by Peter Selinger 2001-2011
</metadata>
<g transform="translate(0.000000,1350.000000) scale(0.100000,-0.100000)"
fill="#000000" stroke="none">
<path d="M5601 8432 c-8 -15 -70 -193 -166 -477 -13 -38 -33 -95 -45 -125 -12
-30 -26 -68 -30 -85 -5 -16 -30 -88 -55 -160 -26 -71 -59 -168 -75 -215 -16
-47 -45 -130 -65 -185 -20 -55 -40 -113 -45 -130 -5 -16 -17 -52 -26 -78 -12
-35 -14 -51 -6 -59 18 -18 71 -13 91 8 10 10 46 100 79 199 33 99 81 239 107
310 25 72 62 177 81 235 40 115 50 133 64 110 5 -7 34 -93 65 -189 31 -97 63
-191 71 -209 8 -18 14 -39 14 -47 0 -8 6 -29 14 -47 8 -18 38 -106 66 -195 29
-89 59 -168 67 -175 12 -9 102 -12 382 -10 201 0 371 1 377 2 19 0 24 28 13
58 -16 39 -129 361 -139 397 -5 17 -52 156 -105 310 -53 154 -113 332 -135
395 -84 248 -123 356 -133 368 -7 9 -66 12 -233 12 -204 0 -224 -2 -233 -18z"/>
<path d="M7936 8437 c-39 -29 -13 -55 97 -98 32 -13 76 -38 97 -56 71 -61 70
-51 70 -733 0 -508 2 -609 14 -626 14 -18 30 -19 383 -19 202 0 379 3 393 6
l25 5 5 625 c5 609 6 625 26 670 21 45 98 119 125 119 8 0 23 7 33 15 11 8 27
15 37 15 18 0 69 37 69 50 0 5 -7 16 -16 24 -14 14 -89 16 -678 16 -532 0
-666 -3 -680 -13z"/>
<path d="M5115 6476 c-42 -18 -57 -40 -53 -78 2 -24 12 -38 37 -55 19 -13 43
-23 55 -23 12 0 40 -9 64 -20 30 -14 42 -25 42 -40 0 -67 -118 -78 -169 -16
-19 23 -31 20 -31 -7 0 -65 147 -94 209 -41 36 30 42 81 14 106 -30 26 -80 48
-110 48 -15 0 -41 10 -57 23 -24 20 -27 26 -18 44 19 35 116 40 143 7 12 -15
49 -19 49 -6 0 22 -35 51 -74 61 -55 14 -64 13 -101 -3z"/>
<path d="M5724 6479 c-73 -21 -87 -95 -25 -136 19 -13 43 -23 55 -23 12 0 40
-9 64 -20 30 -14 42 -25 42 -40 0 -53 -77 -76 -134 -40 -20 12 -36 26 -36 31
0 5 -7 9 -15 9 -27 0 -17 -45 15 -68 40 -30 129 -31 176 -1 29 17 34 26 34 58
0 24 -7 44 -17 53 -27 24 -80 48 -103 48 -35 0 -80 32 -80 56 0 42 110 56 141
18 12 -15 49 -19 49 -6 0 22 -35 51 -74 61 -51 12 -50 12 -92 0z"/>
<path d="M6780 6477 c-19 -6 -50 -27 -67 -47 -31 -32 -33 -40 -33 -104 0 -69
0 -70 45 -113 42 -39 50 -43 97 -43 33 0 58 6 69 16 14 12 22 13 39 4 37 -20
50 -6 50 55 0 85 -9 95 -81 95 -44 0 -60 -3 -57 -12 3 -7 18 -14 36 -16 71 -7
65 -68 -11 -97 -42 -16 -47 -16 -81 0 -41 20 -76 70 -76 109 0 32 20 74 49
100 30 27 114 25 152 -3 26 -19 30 -20 36 -6 8 23 -19 47 -69 62 -50 15 -51
15 -98 0z"/>
<path d="M4544 6472 c-6 -4 -28 -47 -48 -97 -21 -49 -44 -103 -51 -120 -27
-60 -28 -75 -6 -75 12 0 21 6 21 14 0 7 9 25 21 40 18 23 27 26 84 26 57 0 66
-3 84 -26 12 -15 21 -33 21 -40 0 -8 9 -14 20 -14 11 0 20 5 20 11 0 12 -65
170 -86 211 -8 14 -14 33 -14 42 0 8 -9 20 -19 26 -23 12 -32 12 -47 2z m46
-87 c28 -58 24 -89 -13 -93 -30 -4 -57 12 -57 33 0 14 39 105 45 105 2 0 13
-20 25 -45z"/>
<path d="M7362 6468 c-8 -8 -12 -56 -12 -150 0 -131 1 -138 20 -138 19 0 20 7
20 93 0 91 10 132 28 112 5 -6 44 -56 86 -113 106 -141 111 -139 111 48 0 122
-2 145 -15 145 -12 0 -16 -19 -18 -102 -2 -73 -6 -103 -15 -103 -7 0 -43 44
-82 97 -97 132 -99 135 -123 111z"/>
<path d="M8824 6469 c-10 -17 7 -27 51 -31 l40 -3 5 -130 c4 -107 8 -130 20
-130 12 0 15 23 18 132 l3 132 42 3 c30 2 43 8 45 21 3 15 -7 17 -107 17 -68
0 -112 -4 -117 -11z"/>
<path d="M6277 6463 c-4 -3 -7 -69 -7 -145 0 -131 1 -138 20 -138 19 0 20 7
20 145 0 114 -3 145 -13 145 -8 0 -17 -3 -20 -7z"/>
<path d="M8420 6325 c0 -122 2 -145 15 -145 10 0 15 11 16 33 0 29 0 232 -1
250 0 4 -7 7 -15 7 -13 0 -15 -23 -15 -145z"/>
<path d="M4691 5807 c-10 -13 -92 -235 -111 -302 -4 -16 -18 -55 -30 -85 -11
-30 -32 -87 -45 -126 -51 -155 -116 -237 -230 -293 -36 -17 -69 -31 -74 -31
-5 0 -30 -9 -55 -20 -37 -16 -46 -24 -46 -45 l0 -25 369 0 c231 0 372 4 376
10 13 21 -18 49 -92 80 -102 44 -129 65 -148 113 -22 56 -10 111 96 428 49
146 89 275 89 287 0 19 -5 22 -44 22 -24 0 -48 -6 -55 -13z"/>
<path d="M6165 5809 c-7 -10 20 -110 50 -189 7 -19 40 -116 72 -215 49 -153
58 -191 58 -252 -1 -65 -4 -76 -31 -110 -20 -26 -56 -51 -112 -78 -66 -32 -82
-44 -82 -62 l0 -23 686 0 685 0 -3 26 c-3 22 -15 31 -78 57 -87 36 -172 113
-208 188 -19 39 -167 459 -192 544 -12 42 -34 98 -43 113 -11 16 -792 18 -802
1z"/>
<path d="M8212 5808 c-9 -9 -12 -94 -12 -329 0 -349 -4 -376 -61 -435 -28 -29
-57 -45 -172 -93 -40 -17 -48 -24 -45 -43 l3 -23 690 0 c683 0 690 0 690 20 0
15 -22 31 -92 65 -107 52 -138 78 -167 140 -20 42 -21 66 -26 375 l-5 330
-395 3 c-300 2 -399 -1 -408 -10z"/>
</g>
</svg>
